<?xml version="1.0" encoding="UTF-8" standalone="no"?>
<!-- Created with Inkscape (http://www.inkscape.org/) -->

<svg
   xmlns:dc="http://purl.org/dc/elements/1.1/"
   xmlns:cc="http://creativecommons.org/ns#"
   xmlns:rdf="http://www.w3.org/1999/02/22-rdf-syntax-ns#"
   xmlns:svg="http://www.w3.org/2000/svg"
   xmlns="http://www.w3.org/2000/svg"
   xmlns:sodipodi="http://sodipodi.sourceforge.net/DTD/sodipodi-0.dtd"
   xmlns:inkscape="http://www.inkscape.org/namespaces/inkscape"
   width="8.5162764mm"
   height="8.6651039mm"
   viewBox="0 0 8.5162764 8.6651039"
   version="1.1"
   id="svg8"
   inkscape:version="0.92.2 (5c3e80d, 2017-08-06)"
   sodipodi:docname="bomb.svg">
  <defs
     id="defs2" />
  <sodipodi:namedview
     id="base"
     pagecolor="#ffffff"
     bordercolor="#666666"
     borderopacity="1.0"
     inkscape:pageopacity="0.0"
     inkscape:pageshadow="2"
     inkscape:zoom="1"
     inkscape:cx="194.44428"
     inkscape:cy="-47.778431"
     inkscape:document-units="mm"
     inkscape:current-layer="layer2"
     showgrid="false"
     showborder="false"
     inkscape:window-width="1920"
     inkscape:window-height="1017"
     inkscape:window-x="-8"
     inkscape:window-y="-8"
     inkscape:window-maximized="1"
     showguides="true"
     inkscape:guide-bbox="true"
     fit-margin-top="0"
     fit-margin-left="0"
     fit-margin-right="0"
     fit-margin-bottom="0" />
  <metadata
     id="metadata5">
    <rdf:RDF>
      <cc:Work
         rdf:about="">
        <dc:format>image/svg+xml</dc:format>
        <dc:type
           rdf:resource="http://purl.org/dc/dcmitype/StillImage" />
        <dc:title></dc:title>
      </cc:Work>
    </rdf:RDF>
  </metadata>
  <g
     inkscape:groupmode="layer"
     id="layer2"
     inkscape:label="Layer 2"
     style="display:inline"
     transform="translate(-33.893021,-166.93296)">
    <path
       style="display:inline;opacity:1;fill:#000000;fill-opacity:1;stroke:none;stroke-width:0;stroke-miterlimit:4;stroke-dasharray:none;stroke-opacity:1"
       d="m 143.09961,630.92773 v 4.04493 a 12.25,12.25 0 0 0 -2.47656,0.46679 h -2.89258 v 1.28711 a 12.25,12.25 0 0 0 -2.16406,1.66016 v -2.32813 h -3.09375 v 2.3418 h 3.08007 a 12.25,12.25 0 0 0 -2.04882,2.65234 h -1.20899 v 2.3418 h 0.16016 a 12.25,12.25 0 0 0 -0.54102,2.5332 h -3.81445 v 2.625 h 3.8418 a 12.25,12.25 0 0 0 0.88476,3.38477 v 1.66602 h 0.85547 a 12.25,12.25 0 0 0 1.78711,2.2539 h -2.99609 v 2.3418 h 3.09375 v -2.25195 a 12.25,12.25 0 0 0 1.98828,1.56835 v 1.16993 h 2.39453 a 12.25,12.25 0 0 0 3.02539,0.68554 v 4.30664 h 2.5625 v -4.35156 a 12.25,12.25 0 0 0 2.99023,-0.72851 h 2.06446 v -1.04102 a 12.25,12.25 0 0 0 2.20898,-1.76953 v 2.23633 h 3.09375 v -2.3418 h -2.99609 a 12.25,12.25 0 0 0 1.63672,-2.12109 h 1.09375 v -2.28711 a 12.25,12.25 0 0 0 0.63671,-2.72071 h 4.02149 v -2.5 h -4 a 12.25,12.25 0 0 0 -0.55273,-2.6582 h 0.0273 v -2.3418 h -1.07031 a 12.25,12.25 0 0 0 -3.25977,-3.66992 v -1.52343 h -2.6582 a 12.25,12.25 0 0 0 -3.17383,-0.82813 v -4.10352 z m 9.83398,5.39649 v 2.3418 h 3.09375 v -2.3418 z"
       transform="scale(0.26458333)"
       id="path937-8"
       inkscape:connector-curvature="0" />
    <ellipse
       style="display:inline;opacity:1;fill:#ffffff;fill-opacity:1;stroke:none;stroke-width:0;stroke-miterlimit:4;stroke-dasharray:none;stroke-opacity:1"
       id="path954-1"
       cx="37.200306"
       cy="170.33923"
       rx="0.95911461"
       ry="0.9921875" />
  </g>
</svg>
