<?xml version="1.0" encoding="UTF-8" standalone="no"?>
<!-- Created with Inkscape (http://www.inkscape.org/) -->

<svg
   xmlns:dc="http://purl.org/dc/elements/1.1/"
   xmlns:cc="http://creativecommons.org/ns#"
   xmlns:rdf="http://www.w3.org/1999/02/22-rdf-syntax-ns#"
   xmlns:svg="http://www.w3.org/2000/svg"
   xmlns="http://www.w3.org/2000/svg"
   xmlns:sodipodi="http://sodipodi.sourceforge.net/DTD/sodipodi-0.dtd"
   xmlns:inkscape="http://www.inkscape.org/namespaces/inkscape"
   width="6.2823009mm"
   height="6.56497mm"
   viewBox="0 0 6.2823009 6.56497"
   version="1.1"
   id="svg8"
   inkscape:version="0.92.2 (5c3e80d, 2017-08-06)"
   sodipodi:docname="n8.svg">
  <defs
     id="defs2" />
  <sodipodi:namedview
     id="base"
     pagecolor="#ffffff"
     bordercolor="#666666"
     borderopacity="1.0"
     inkscape:pageopacity="0.0"
     inkscape:pageshadow="2"
     inkscape:zoom="0.70710678"
     inkscape:cx="533.56099"
     inkscape:cy="-155.94599"
     inkscape:document-units="mm"
     inkscape:current-layer="layer2"
     showgrid="false"
     showborder="false"
     inkscape:window-width="1920"
     inkscape:window-height="1017"
     inkscape:window-x="1912"
     inkscape:window-y="-8"
     inkscape:window-maximized="1"
     showguides="true"
     inkscape:guide-bbox="true"
     fit-margin-top="0"
     fit-margin-left="0"
     fit-margin-right="0"
     fit-margin-bottom="0" />
  <metadata
     id="metadata5">
    <rdf:RDF>
      <cc:Work
         rdf:about="">
        <dc:format>image/svg+xml</dc:format>
        <dc:type
           rdf:resource="http://purl.org/dc/dcmitype/StillImage" />
        <dc:title></dc:title>
      </cc:Work>
    </rdf:RDF>
  </metadata>
  <g
     inkscape:groupmode="layer"
     id="layer2"
     inkscape:label="Layer 2"
     style="display:inline"
     transform="translate(-23.878254,-168.45987)">
    <path
       style="opacity:1;fill:#787878;fill-opacity:1;stroke:none;stroke-width:0;stroke-miterlimit:4;stroke-dasharray:none;stroke-opacity:1"
       d="m 25.184635,168.45987 v 0.44648 h -0.56224 v 0.31419 h -0.429948 v 0.41341 h -0.314193 v 1.10795 h 0.314193 v 0.39687 h 0.429948 v 0.69453 0.51263 h -0.429948 v 0.39688 h -0.314193 v 1.10794 h 0.314193 v 0.41341 h 0.429948 v 0.3142 h 0.56224 v 0.44648 h 1.81746 0.03462 1.81746 v -0.44648 h 0.562239 v -0.3142 h 0.429948 v -0.41341 h 0.314193 v -1.10794 h -0.314193 v -0.39688 h -0.429948 v -0.69453 -0.51263 h 0.429948 v -0.39687 h 0.314193 v -1.10795 h -0.314193 v -0.41341 h -0.429948 v -0.31419 h -0.562239 v -0.44648 h -1.81746 -0.03462 z m 0.529166,1.55442 h 1.288294 0.03462 1.288293 v 1.12448 h -1.288293 -0.03462 -1.288294 z m 0,2.33164 h 1.288294 0.03462 1.288293 v 1.12448 h -1.288293 -0.03462 -1.288294 z"
       id="rect1267-2"
       inkscape:connector-curvature="0" />
  </g>
</svg>
