<?xml version="1.0" encoding="UTF-8" standalone="no"?>
<!-- Created with Inkscape (http://www.inkscape.org/) -->

<svg
   xmlns:dc="http://purl.org/dc/elements/1.1/"
   xmlns:cc="http://creativecommons.org/ns#"
   xmlns:rdf="http://www.w3.org/1999/02/22-rdf-syntax-ns#"
   xmlns:svg="http://www.w3.org/2000/svg"
   xmlns="http://www.w3.org/2000/svg"
   xmlns:sodipodi="http://sodipodi.sourceforge.net/DTD/sodipodi-0.dtd"
   xmlns:inkscape="http://www.inkscape.org/namespaces/inkscape"
   width="11.34225mm"
   height="11.34225mm"
   viewBox="0 0 11.34225 11.34225"
   version="1.1"
   id="svg8"
   inkscape:version="0.92.2 (5c3e80d, 2017-08-06)"
   sodipodi:docname="smiley-loss.svg">
  <defs
     id="defs2" />
  <sodipodi:namedview
     id="base"
     pagecolor="#ffffff"
     bordercolor="#666666"
     borderopacity="1.0"
     inkscape:pageopacity="0.0"
     inkscape:pageshadow="2"
     inkscape:zoom="1.4142136"
     inkscape:cx="320.3525"
     inkscape:cy="-87.695673"
     inkscape:document-units="mm"
     inkscape:current-layer="layer2"
     showgrid="false"
     showborder="false"
     inkscape:window-width="1920"
     inkscape:window-height="1017"
     inkscape:window-x="-8"
     inkscape:window-y="-8"
     inkscape:window-maximized="1"
     showguides="true"
     inkscape:guide-bbox="true"
     fit-margin-top="0"
     fit-margin-left="0"
     fit-margin-right="0"
     fit-margin-bottom="0" />
  <metadata
     id="metadata5">
    <rdf:RDF>
      <cc:Work
         rdf:about="">
        <dc:format>image/svg+xml</dc:format>
        <dc:type
           rdf:resource="http://purl.org/dc/dcmitype/StillImage" />
        <dc:title></dc:title>
      </cc:Work>
    </rdf:RDF>
  </metadata>
  <g
     inkscape:groupmode="layer"
     id="layer2"
     inkscape:label="Layer 2"
     style="display:inline"
     transform="translate(107.28763,-105.14116)">
    <circle
       style="display:inline;opacity:1;fill:#000000;fill-opacity:1;stroke:none;stroke-width:0;stroke-miterlimit:4;stroke-dasharray:none;stroke-opacity:1"
       id="path1472-48-2"
       cx="-101.61651"
       cy="110.81229"
       r="5.6711249" />
    <ellipse
       style="display:inline;opacity:1;fill:#fdfa32;fill-opacity:1;stroke:none;stroke-width:0;stroke-miterlimit:4;stroke-dasharray:none;stroke-opacity:1"
       id="path1472-4-7-9"
       cx="-101.60482"
       cy="110.87077"
       rx="4.92277"
       ry="5.0163145" />
    <path
       style="display:inline;opacity:1;fill:#120007;fill-opacity:1;stroke:none;stroke-width:0;stroke-miterlimit:4;stroke-dasharray:none;stroke-opacity:1"
       d="m -100.73926,108.24539 v 0.64492 h 0.64493 v -0.64492 z m 0.64493,0.64492 v 0.64492 h 0.644921 v -0.64492 z m 0.644921,0 h 0.64492 v -0.64492 h -0.64492 z m 0,0.64492 v 0.64492 h 0.64492 v -0.64492 z m -0.644921,0 h -0.64493 v 0.64492 h 0.64493 z m -4.51186,-1.28726 v 0.64492 h 0.64489 v -0.64492 z m 0.64489,0.64492 v 0.64492 h 0.64495 v -0.64492 z m 0.64495,0 h 0.64489 v -0.64492 h -0.64489 z m 0,0.64492 v 0.64493 h 0.64489 v -0.64493 z m -0.64495,0 h -0.64489 v 0.64493 h 0.64489 z"
       id="rect1963-3-3"
       inkscape:connector-curvature="0" />
    <path
       style="display:inline;fill:none;stroke:#000000;stroke-width:0.86500001;stroke-linecap:butt;stroke-linejoin:miter;stroke-miterlimit:4;stroke-dasharray:none;stroke-opacity:1"
       d="m -104.3122,113.37259 c 0,0 1.01975,-1.26524 2.50728,-1.38387 0.0817,-0.007 0.16485,-0.01 0.24931,-0.009 2.1e-4,0 4.2e-4,0 6.3e-4,1e-5 0.008,8e-5 0.0169,2e-4 0.0254,3.7e-4 0.10605,0.002 0.21415,0.0101 0.32413,0.0251 0.71079,0.097 1.499892,0.48216 2.318832,1.36714"
       id="path928-3-43"
       inkscape:connector-curvature="0"
       sodipodi:nodetypes="csssssc" />
    <circle
       style="display:inline;opacity:1;fill:#000000;fill-opacity:1;stroke:none;stroke-width:0.84673148;stroke-miterlimit:4;stroke-dasharray:none;stroke-opacity:1"
       id="path933-8-5-3"
       cx="-104.31481"
       cy="-113.37533"
       r="0.43163881"
       transform="scale(1,-1)" />
    <circle
       style="display:inline;opacity:1;fill:#000000;fill-opacity:1;stroke:none;stroke-width:0.84673148;stroke-miterlimit:4;stroke-dasharray:none;stroke-opacity:1"
       id="path933-0-4-7"
       cx="-98.888664"
       cy="-113.3698"
       r="0.43163881"
       transform="scale(1,-1)" />
  </g>
</svg>
