<?xml version="1.0" encoding="UTF-8" standalone="no"?>
<!-- Created with Inkscape (http://www.inkscape.org/) -->

<svg
   xmlns:dc="http://purl.org/dc/elements/1.1/"
   xmlns:cc="http://creativecommons.org/ns#"
   xmlns:rdf="http://www.w3.org/1999/02/22-rdf-syntax-ns#"
   xmlns:svg="http://www.w3.org/2000/svg"
   xmlns="http://www.w3.org/2000/svg"
   xmlns:sodipodi="http://sodipodi.sourceforge.net/DTD/sodipodi-0.dtd"
   xmlns:inkscape="http://www.inkscape.org/namespaces/inkscape"
   width="11.34225mm"
   height="11.34225mm"
   viewBox="0 0 11.34225 11.34225"
   version="1.1"
   id="svg8"
   inkscape:version="0.92.2 (5c3e80d, 2017-08-06)"
   sodipodi:docname="smiley-win.svg">
  <defs
     id="defs2" />
  <sodipodi:namedview
     id="base"
     pagecolor="#ffffff"
     bordercolor="#666666"
     borderopacity="1.0"
     inkscape:pageopacity="0.0"
     inkscape:pageshadow="2"
     inkscape:zoom="1.4142136"
     inkscape:cx="300.47379"
     inkscape:cy="-57.381482"
     inkscape:document-units="mm"
     inkscape:current-layer="layer2"
     showgrid="false"
     showborder="false"
     inkscape:window-width="1920"
     inkscape:window-height="1017"
     inkscape:window-x="-8"
     inkscape:window-y="-8"
     inkscape:window-maximized="1"
     showguides="true"
     inkscape:guide-bbox="true"
     fit-margin-top="0"
     fit-margin-left="0"
     fit-margin-right="0"
     fit-margin-bottom="0" />
  <metadata
     id="metadata5">
    <rdf:RDF>
      <cc:Work
         rdf:about="">
        <dc:format>image/svg+xml</dc:format>
        <dc:type
           rdf:resource="http://purl.org/dc/dcmitype/StillImage" />
        <dc:title></dc:title>
      </cc:Work>
    </rdf:RDF>
  </metadata>
  <g
     inkscape:groupmode="layer"
     id="layer2"
     inkscape:label="Layer 2"
     style="display:inline"
     transform="translate(109.5116,-111.85218)">
    <circle
       style="display:inline;opacity:1;fill:#000000;fill-opacity:1;stroke:none;stroke-width:0;stroke-miterlimit:4;stroke-dasharray:none;stroke-opacity:1"
       id="path1472-19-5"
       cx="-103.84048"
       cy="117.5233"
       r="5.6711249" />
    <ellipse
       style="display:inline;opacity:1;fill:#fdfa32;fill-opacity:1;stroke:none;stroke-width:0;stroke-miterlimit:4;stroke-dasharray:none;stroke-opacity:1"
       id="path1472-4-0-9"
       cx="-103.8288"
       cy="117.58176"
       rx="4.92277"
       ry="5.0163145" />
    <path
       inkscape:connector-curvature="0"
       style="display:inline;opacity:1;fill:#000000;fill-opacity:1;stroke:none;stroke-width:0;stroke-miterlimit:4;stroke-dasharray:none;stroke-opacity:1"
       d="m -106.57697,114.75922 a 1.5738032,1.6734112 0 0 0 -0.55469,1.27498 1.5738032,1.6734112 0 0 0 1.57381,1.67341 1.5738032,1.6734112 0 0 0 1.5738,-1.67341 1.5738032,1.6734112 0 0 0 -0.0853,-0.53788 h 0.60198 a 1.5738032,1.6734112 0 0 0 -0.0784,0.51796 1.5738032,1.6734112 0 0 0 1.57381,1.67341 1.5738032,1.6734112 0 0 0 1.5738,-1.67341 1.5738032,1.6734112 0 0 0 -0.53601,-1.25506 h -2.0762 a 1.5738032,1.6734112 0 0 0 -0.0417,0.0398 h -1.4468 a 1.5738032,1.6734112 0 0 0 -0.0454,-0.0398 z"
       id="path1737-3-9-5" />
    <rect
       style="display:inline;opacity:1;fill:#000000;fill-opacity:1;stroke:none;stroke-width:0;stroke-miterlimit:4;stroke-dasharray:none;stroke-opacity:1"
       id="rect1763-3-1-1"
       width="0.69725096"
       height="0.67733198"
       x="-108.34687"
       y="116.17369" />
    <rect
       style="display:inline;opacity:1;fill:#000000;fill-opacity:1;stroke:none;stroke-width:0;stroke-miterlimit:4;stroke-dasharray:none;stroke-opacity:1"
       id="rect1763-9-2-2-5"
       width="0.69725096"
       height="0.67733198"
       x="-107.64964"
       y="115.49637" />
    <rect
       style="display:inline;opacity:1;fill:#000000;fill-opacity:1;stroke:none;stroke-width:0;stroke-miterlimit:4;stroke-dasharray:none;stroke-opacity:1"
       id="rect1763-93-0-2-4"
       width="0.69725096"
       height="0.67733198"
       x="-109.04412"
       y="116.85103" />
    <rect
       style="display:inline;opacity:1;fill:#000000;fill-opacity:1;stroke:none;stroke-width:0;stroke-miterlimit:4;stroke-dasharray:none;stroke-opacity:1"
       id="rect1763-5-9-1-8"
       width="0.69725156"
       height="0.67733198"
       x="99.322403"
       y="116.17369"
       transform="scale(-1,1)" />
    <rect
       style="display:inline;opacity:1;fill:#000000;fill-opacity:1;stroke:none;stroke-width:0;stroke-miterlimit:4;stroke-dasharray:none;stroke-opacity:1"
       id="rect1763-9-0-0-0-8"
       width="0.69725156"
       height="0.67733198"
       x="100.01966"
       y="115.49637"
       transform="scale(-1,1)" />
    <rect
       style="display:inline;opacity:1;fill:#000000;fill-opacity:1;stroke:none;stroke-width:0;stroke-miterlimit:4;stroke-dasharray:none;stroke-opacity:1"
       id="rect1763-93-3-9-0-5"
       width="0.69725156"
       height="0.67733198"
       x="98.625175"
       y="116.85103"
       transform="scale(-1,1)" />
    <path
       style="display:inline;fill:none;stroke:#000000;stroke-width:0.86500001;stroke-linecap:butt;stroke-linejoin:miter;stroke-miterlimit:4;stroke-dasharray:none;stroke-opacity:1"
       d="m -106.49465,119.30043 c 0,0 1.01975,1.26524 2.50728,1.38387 0.0817,0.007 0.16485,0.01 0.24931,0.009 2.1e-4,0 4.2e-4,0 6.3e-4,-10e-6 0.008,-8e-5 0.0169,-2e-4 0.0254,-3.7e-4 0.10605,-0.002 0.21415,-0.0101 0.32413,-0.0251 0.71079,-0.097 1.49989,-0.48216 2.31883,-1.36714"
       id="path928-3-8"
       inkscape:connector-curvature="0"
       sodipodi:nodetypes="csssssc" />
    <circle
       style="display:inline;opacity:1;fill:#000000;fill-opacity:1;stroke:none;stroke-width:0.84673148;stroke-miterlimit:4;stroke-dasharray:none;stroke-opacity:1"
       id="path933-8-5-8"
       cx="-106.49726"
       cy="119.29771"
       r="0.43163881" />
    <circle
       style="display:inline;opacity:1;fill:#000000;fill-opacity:1;stroke:none;stroke-width:0.84673148;stroke-miterlimit:4;stroke-dasharray:none;stroke-opacity:1"
       id="path933-0-4-9"
       cx="-101.07111"
       cy="119.30324"
       r="0.43163881" />
  </g>
</svg>
